<svg viewBox="0 0 200 200" xmlns="http://www.w3.org/2000/svg" xml:space="preserve" style="fill-rule:evenodd;clip-rule:evenodd;stroke-linejoin:round;stroke-miterlimit:2;fill:#000"><style>@media (prefers-color-scheme:dark){svg{fill:#fff!important}}</style><path d="M200 100.001c0-6.493-5.272-11.764-11.765-11.764H47.059c-6.493 0-11.765 5.271-11.765 11.764 0 6.494 5.272 11.765 11.765 11.765h141.176c6.493 0 11.765-5.271 11.765-11.765Z"/><path d="M111.765 35.295v5.882c0 9.36-3.72 18.339-10.337 24.958a35.301 35.301 0 0 1-24.957 10.337H47.059c-6.24 0-12.225 2.479-16.638 6.89a23.536 23.536 0 0 0-6.891 16.639c0 6.24 2.479 12.225 6.89 16.638a23.536 23.536 0 0 0 16.639 6.891h29.412c9.36 0 18.338 3.72 24.957 10.337a35.301 35.301 0 0 1 10.337 24.958V196a4 4 0 0 1-4 4h-15.53a4 4 0 0 1-4-4v-37.176a11.765 11.765 0 0 0-11.764-11.765H47.059a47.052 47.052 0 0 1-33.275-13.784 47.052 47.052 0 0 1 0-66.55 47.052 47.052 0 0 1 33.275-13.784h29.412a11.765 11.765 0 0 0 11.764-11.765v-5.882H76.471L100 .001l23.529 35.294h-11.765ZM147.06 196.001a4 4 0 0 1-4 4h-15.53a4 4 0 0 1-4-4v-68.47a4 4 0 0 1 4-4h15.53a4 4 0 0 1 4 4V196Z"/></svg>